<?xml version="1.0" encoding="UTF-8" standalone="no"?>
<!-- Created with Inkscape (http://www.inkscape.org/) -->

<svg
   width="295.54901mm"
   height="263.61301mm"
   viewBox="0 0 295.54901 263.61301"
   version="1.1"
   id="svg1"
   inkscape:version="1.4 (86a8ad7, 2024-10-11)"
   sodipodi:docname="traffic light.svg"
   xmlns:inkscape="http://www.inkscape.org/namespaces/inkscape"
   xmlns:sodipodi="http://sodipodi.sourceforge.net/DTD/sodipodi-0.dtd"
   xmlns:xlink="http://www.w3.org/1999/xlink"
   xmlns="http://www.w3.org/2000/svg"
   xmlns:svg="http://www.w3.org/2000/svg">
  <sodipodi:namedview
     id="namedview1"
     pagecolor="#ffffff"
     bordercolor="#eeeeee"
     borderopacity="1"
     inkscape:showpageshadow="0"
     inkscape:pageopacity="0"
     inkscape:pagecheckerboard="0"
     inkscape:deskcolor="#505050"
     inkscape:document-units="mm"
     inkscape:zoom="0.75"
     inkscape:cx="604.66667"
     inkscape:cy="498"
     inkscape:window-width="1920"
     inkscape:window-height="1001"
     inkscape:window-x="-9"
     inkscape:window-y="-9"
     inkscape:window-maximized="1"
     inkscape:current-layer="g4" />
  <defs
     id="defs1">
    <linearGradient
       id="linearGradient26"
       inkscape:collect="always">
      <stop
         style="stop-color:#ff971c;stop-opacity:1;"
         offset="0"
         id="stop27" />
      <stop
         style="stop-color:#d64700;stop-opacity:1;"
         offset="1"
         id="stop26" />
    </linearGradient>
    <radialGradient
       inkscape:collect="always"
       xlink:href="#linearGradient26"
       id="radialGradient27"
       cx="114.90927"
       cy="102.31585"
       fx="114.90927"
       fy="102.31585"
       r="29.586308"
       gradientTransform="matrix(3.5640935,0.15384561,-0.12191149,2.8242855,-282.90136,-254.11305)"
       gradientUnits="userSpaceOnUse" />
    <radialGradient
       inkscape:collect="always"
       xlink:href="#linearGradient26"
       id="radialGradient28"
       gradientUnits="userSpaceOnUse"
       gradientTransform="matrix(-4.1779026,1.0203375,-0.8312096,-3.4034944,513.63634,252.35165)"
       cx="91.986519"
       cy="94.693733"
       fx="91.986519"
       fy="94.693733"
       r="29.586308" />
    <radialGradient
       inkscape:collect="always"
       xlink:href="#linearGradient26"
       id="radialGradient29"
       gradientUnits="userSpaceOnUse"
       gradientTransform="matrix(-4.1779024,1.0203377,-0.83120983,-3.403494,513.63635,252.35149)"
       cx="91.986526"
       cy="94.693703"
       fx="91.986526"
       fy="94.693703"
       r="29.586308" />
    <radialGradient
       inkscape:collect="always"
       xlink:href="#linearGradient26"
       id="radialGradient30"
       gradientUnits="userSpaceOnUse"
       gradientTransform="matrix(-4.1779018,1.0203379,-0.83121013,-3.4034949,513.63636,252.35155)"
       cx="91.986542"
       cy="94.69371"
       fx="91.986542"
       fy="94.69371"
       r="29.586308" />
    <radialGradient
       inkscape:collect="always"
       xlink:href="#linearGradient26"
       id="radialGradient31"
       gradientUnits="userSpaceOnUse"
       gradientTransform="matrix(-4.177902,1.0203381,-0.83121018,-3.4034945,676.0968,283.11041)"
       cx="112.25993"
       cy="102.4534"
       fx="112.25993"
       fy="102.45338"
       r="29.586308" />
    <radialGradient
       inkscape:collect="always"
       xlink:href="#linearGradient26"
       id="radialGradient32"
       gradientUnits="userSpaceOnUse"
       gradientTransform="matrix(-4.1779015,1.0203375,-0.83121,-3.4034948,676.09675,283.11064)"
       cx="112.25993"
       cy="102.45344"
       fx="112.25993"
       fy="102.45344"
       r="29.586308" />
    <radialGradient
       inkscape:collect="always"
       xlink:href="#linearGradient26"
       id="radialGradient33"
       gradientUnits="userSpaceOnUse"
       gradientTransform="matrix(-4.1779022,1.0203371,-0.83120959,-3.4034947,676.09681,283.11065)"
       cx="112.25993"
       cy="102.45343"
       fx="112.25993"
       fy="102.45342"
       r="29.586308" />
  </defs>
  <g
     inkscape:label="Camada 1"
     inkscape:groupmode="layer"
     id="layer1"
     transform="translate(33.942357,20.451358)">
    <g
       id="g4"
       transform="translate(4.0000231,2.4999782)">
      <path
         id="rect2"
         style="fill:#ef7711;stroke-dasharray:12.813, 12.813"
         d="M -25.92761 36.000104 L -25.92761 40.271678 L -13.115472 40.271678 L -13.115472 36.000104 L -25.92761 36.000104 z M -0.30075005 36.000104 L -0.30075005 40.271678 L 12.511905 40.271678 L 12.511905 36.000104 L -0.30075005 36.000104 z M 25.324042 36.000104 L 25.324042 40.271678 L 38.136697 40.271678 L 38.136697 36.000104 L 25.324042 36.000104 z M 50.951419 36.000104 L 50.951419 40.271678 L 63.763557 40.271678 L 63.763557 36.000104 L 50.951419 36.000104 z M 76.576211 36.000104 L 76.576211 40.271678 L 89.388866 40.271678 L 89.388866 36.000104 L 76.576211 36.000104 z M 102.85523 36.431602 L 101.48063 40.474767 C 101.94188 40.631529 102.35649 40.919853 102.73017 41.254047 L 107.77792 41.254047 C 107.53515 40.589385 107.20551 39.955808 106.7909 39.373025 L 106.78935 39.370958 C 105.82149 38.004036 104.44808 36.972787 102.85574 36.431602 L 102.85523 36.431602 z M -31.121091 37.904381 C -31.82727 38.503075 -32.42175 39.218593 -32.880674 40.01743 C -33.584212 41.238746 -33.944455 42.620857 -33.941591 44.01977 L -33.941591 51.734544 L -29.672084 51.734544 L -29.672084 44.011502 L -29.672084 44.009951 C -29.673384 43.364022 -29.49718 42.70141 -29.179607 42.150116 L -29.179607 42.148566 L -29.17754 42.146499 C -28.964194 41.774676 -28.683141 41.436442 -28.359502 41.162063 L -31.121091 37.904381 z M -33.941591 64.546682 L -33.941591 77.359337 L -29.672084 77.359337 L -29.672084 64.546682 L -33.941591 64.546682 z M -33.941591 90.171991 L -33.941591 102.9862 L -29.672084 102.9862 L -29.672084 90.171991 L -33.941591 90.171991 z M -33.941591 115.79885 L -33.941591 128.61151 L -29.672084 128.61151 L -29.672084 115.79885 L -33.941591 115.79885 z M -33.941591 141.42364 L -33.941591 154.23837 L -29.672084 154.23837 L -29.672084 141.42364 L -33.941591 141.42364 z M -33.941591 167.05102 L -33.941591 179.86316 L -29.672084 179.86316 L -29.672084 167.05102 L -33.941591 167.05102 z M -33.941591 192.67581 L -33.941591 205.49002 L -29.672084 205.49002 L -29.672084 192.67581 L -33.941591 192.67581 z M 103.9518 215.87905 C 103.86012 216.54548 103.57357 217.21227 103.14462 217.73061 L 103.14255 217.73268 L 103.14048 217.7363 C 102.68902 218.28553 102.04846 218.71387 101.37315 218.92176 L 101.35919 218.92796 L 101.34369 218.93209 C 100.29254 219.27268 98.263846 218.61786 95.525442 219.12743 L 96.30679 223.32665 C 97.461945 223.1117 99.797456 223.91542 102.64852 222.99644 C 104.13671 222.53432 105.45288 221.64807 106.4395 220.44776 C 107.40074 219.2841 108.01104 217.87261 108.19909 216.37359 L 104.27426 215.87905 L 103.9518 215.87905 z M -29.21113 217.15804 L -32.959222 219.20494 C -32.252147 220.4994 -31.200897 221.56899 -29.923748 222.30088 C -28.703567 223.00376 -27.32519 223.36553 -25.92761 223.36334 L -19.400359 223.36334 L -19.400359 219.09177 L -25.929677 219.09177 L -25.931744 219.09177 C -26.577672 219.09277 -27.241834 218.91738 -27.793129 218.59981 L -27.795196 218.59774 L -27.797263 218.59774 C -28.381506 218.26334 -28.889715 217.74647 -29.21113 217.15804 z M -6.5877048 219.09177 L -6.5877048 223.36334 L 6.2265001 223.36334 L 6.2265001 219.09177 L -6.5877048 219.09177 z M 19.039155 219.09177 L 19.039155 223.36334 L 31.851809 223.36334 L 31.851809 219.09177 L 19.039155 219.09177 z M 44.663947 219.09177 L 44.663947 223.36334 L 57.478669 223.36334 L 57.478669 219.09177 L 44.663947 219.09177 z M 70.290807 219.09177 L 70.290807 223.36334 L 83.103461 223.36334 L 83.103461 219.09177 L 70.290807 219.09177 z " />
      <path
         id="rect4"
         style="fill:#ef7711;stroke-dasharray:15.0386, 15.0386"
         d="M 122.05457 -20.447096 L 122.05457 -15.435516 L 137.09396 -15.435516 L 137.09396 -20.447096 L 122.05457 -20.447096 z M 152.13077 -20.447096 L 152.13077 -15.435516 L 167.17016 -15.435516 L 167.17016 -20.447096 L 152.13077 -20.447096 z M 182.20904 -20.447096 L 182.20904 -15.435516 L 197.24792 -15.435516 L 197.24792 -20.447096 L 182.20904 -20.447096 z M 212.28524 -20.447096 L 212.28524 -15.435516 L 227.32412 -15.435516 L 227.32412 -20.447096 L 212.28524 -20.447096 z M 242.3201 -20.447096 L 242.4064 -15.435516 C 243.02596 -15.446096 243.54161 -15.424473 243.94326 -15.349733 L 243.95514 -15.347666 L 243.96858 -15.345599 C 244.98697 -15.166664 245.9835 -14.676792 246.7498 -13.97824 L 246.75187 -13.974623 L 246.756 -13.972556 C 247.52087 -13.279678 248.10127 -12.342414 248.37916 -11.353595 L 248.38123 -11.351527 L 248.38123 -11.34946 C 248.52231 -10.851101 248.59432 -10.324684 248.59414 -9.7986507 L 248.59414 -8.1522395 L 253.60778 -8.1522395 L 253.60778 -9.7971004 C 253.60812 -10.779368 253.47299 -11.761633 253.20316 -12.714752 C 252.6637 -14.63132 251.59274 -16.354517 250.12117 -17.687575 C 248.64458 -19.031804 246.81362 -19.933576 244.84398 -20.281215 C 243.90999 -20.452902 243.05817 -20.459692 242.32062 -20.447096 L 242.3201 -20.447096 z M 121.2107 -20.414023 C 119.90043 -20.313026 118.61833 -19.969469 117.4316 -19.398581 C 115.49221 -18.469437 113.87915 -16.969169 112.81224 -15.103753 C 112.81178 -15.10295 112.81169 -15.102486 112.81069 -15.101686 C 111.87991 -13.482744 111.40026 -11.648077 111.40406 -9.7929662 L 111.40406 -6.9063207 L 116.41771 -6.9063207 L 116.41771 -9.8007177 L 116.41771 -9.8027848 C 116.41571 -10.777028 116.67758 -11.771314 117.15823 -12.605714 L 117.1603 -12.609332 L 117.16236 -12.613466 C 117.71462 -13.579641 118.59676 -14.399234 119.59942 -14.878961 L 119.60149 -14.881028 L 119.60356 -14.881028 C 120.22229 -15.178677 120.90851 -15.36291 121.59569 -15.415879 L 121.2107 -20.414023 z M 248.59362 6.8866358 L 248.59362 21.926028 L 253.60727 21.926028 L 253.60727 6.8866358 L 248.59362 6.8866358 z M 111.40406 8.1325546 L 111.40406 23.16988 L 116.41822 23.16988 L 116.41822 8.1325546 L 111.40406 8.1325546 z M 248.59362 36.964903 L 248.59362 52.001711 L 253.60727 52.001711 L 253.60727 36.964903 L 248.59362 36.964903 z M 111.40406 38.208755 L 111.40406 41.254047 L 116.41822 41.254047 L 116.41822 38.208755 L 111.40406 38.208755 z M 248.59362 67.041104 L 248.59362 82.079979 L 253.60727 82.079979 L 253.60727 67.041104 L 248.59362 67.041104 z M 248.59362 97.119371 L 248.59362 112.15618 L 253.60727 112.15618 L 253.60727 97.119371 L 248.59362 97.119371 z M 248.59362 127.19505 L 248.59362 142.23445 L 253.60727 142.23445 L 253.60727 127.19505 L 248.59362 127.19505 z M 248.59362 157.27332 L 248.59362 172.31065 L 253.60727 172.31065 L 253.60727 157.27332 L 248.59362 157.27332 z M 248.59362 187.34952 L 248.59362 202.38891 L 253.60727 202.38891 L 253.60727 187.34952 L 248.59362 187.34952 z M 248.59362 217.42779 L 248.59362 227.51348 L 248.59362 227.51761 C 248.59562 228.49185 248.3322 229.48614 247.85154 230.32054 C 247.76474 230.47119 247.6811 230.60638 247.59781 230.72465 L 251.69524 233.6113 C 251.88303 233.34467 252.04731 233.07942 252.19547 232.8222 C 253.12816 231.20309 253.61006 229.36796 253.60727 227.51193 L 253.60727 227.50573 L 253.60727 217.42779 L 248.59362 217.42779 z M 116.2265 217.71098 L 111.59578 219.63282 C 112.0002 220.607 111.96596 221.86086 111.75391 223.5623 C 111.54211 225.26172 111.13649 227.32843 111.62317 229.66219 C 112.01975 231.61804 112.96174 233.42298 114.33773 234.86342 L 117.96283 231.40058 C 117.24853 230.65281 116.73677 229.67267 116.53295 228.66225 L 116.5314 228.65191 L 116.52933 228.64209 C 116.29912 227.54265 116.49766 226.03317 116.72828 224.18293 C 116.95886 222.33283 117.20258 220.06259 116.2265 217.71098 z M 130.49437 233.14828 L 130.49437 238.16192 L 145.53118 238.16192 L 145.53118 233.14828 L 130.49437 233.14828 z M 160.57057 233.14828 L 160.57057 238.16192 L 175.60944 238.16192 L 175.60944 233.14828 L 160.57057 233.14828 z M 190.64832 233.14828 L 190.64832 238.16192 L 205.68564 238.16192 L 205.68564 233.14828 L 190.64832 233.14828 z M 220.72452 233.14828 L 220.72452 238.16192 L 235.76391 238.16192 L 235.76391 233.14828 L 220.72452 233.14828 z " />
      <g
         id="g6"
         style="fill:url(#radialGradient27)">
        <path
           id="rect1"
           style="fill:url(#radialGradient31);fill-opacity:1;stroke-width:0.249827"
           d="m 91.688977,56.303023 c -6.912465,0 -12.477791,6.192953 -12.477791,13.885458 v 66.726679 c 0,7.69251 5.565326,13.88545 12.477791,13.88545 h 15.380973 c 6.91246,0 12.47727,-6.19294 12.47727,-13.88545 V 70.188481 c 0,-7.692505 -5.56481,-13.885458 -12.47727,-13.885458 z m 7.690487,12.352218 A 10.24138,10.24138 0 0 1 109.6207,78.896476 10.24138,10.24138 0 0 1 99.379464,89.138228 10.24138,10.24138 0 0 1 89.137712,78.896476 10.24138,10.24138 0 0 1 99.379464,68.655241 Z m 0,24.655342 A 10.24138,10.24138 0 0 1 109.6207,103.55182 10.24138,10.24138 0 0 1 99.379464,113.79305 10.24138,10.24138 0 0 1 89.137712,103.55182 10.24138,10.24138 0 0 1 99.379464,93.310583 Z m 0,24.654827 A 10.24138,10.24138 0 0 1 109.6207,128.20716 10.24138,10.24138 0 0 1 99.379464,138.4484 10.24138,10.24138 0 0 1 89.137712,128.20716 10.24138,10.24138 0 0 1 99.379464,117.96541 Z" />
        <path
           id="path2"
           style="fill:url(#radialGradient32);fill-opacity:1;stroke-width:0.294724"
           d="m 86.736825,45.896423 c -9.386734,0 -16.943669,7.556936 -16.943669,16.943669 v 81.423458 c 0,9.38673 7.556935,16.94315 16.943669,16.94315 H 112.0221 c 9.38674,0 16.94367,-7.55642 16.94367,-16.94315 V 62.840092 c 0,-9.386733 -7.55693,-16.943669 -16.94367,-16.943669 z m 3.071647,4.816761 h 19.141988 c 8.60255,0 15.52773,6.925699 15.52773,15.528251 V 140.8622 c 0,8.60256 -6.92518,15.52825 -15.52773,15.52825 H 89.808472 c -8.602552,0 -15.528251,-6.92569 -15.528251,-15.52825 V 66.241435 c 0,-8.602552 6.925699,-15.528251 15.528251,-15.528251 z" />
        <rect
           style="fill:url(#radialGradient33);fill-opacity:1;stroke:none;stroke-width:4.07501;stroke-dasharray:none;stroke-opacity:1"
           id="rect6"
           width="11.758621"
           height="65.620689"
           x="93.500153"
           y="147.55171"
           ry="0" />
        <circle
           style="fill:url(#radialGradient28);fill-opacity:1;stroke-width:0.103252"
           id="circle4"
           cx="28.068966"
           cy="53.862072"
           r="6.0689659"
           transform="translate(71.310241,25.034571)" />
        <circle
           style="fill:url(#radialGradient29);fill-opacity:1;stroke-width:0.103252"
           id="circle5"
           cx="28.068966"
           cy="78.517242"
           r="6.0689659"
           transform="translate(71.310241,25.034571)" />
        <circle
           style="fill:url(#radialGradient30);fill-opacity:1;stroke-width:0.103252"
           id="circle6"
           cx="28.068966"
           cy="103.17242"
           r="6.0689659"
           transform="translate(71.310241,25.034571)" />
      </g>
    </g>
  </g>
</svg>
