<?xml version="1.0" encoding="UTF-8" standalone="no"?>
<!-- Created with Inkscape (http://www.inkscape.org/) -->

<svg
   width="180.76743mm"
   height="87.811424mm"
   viewBox="0 0 180.76743 87.811427"
   version="1.1"
   id="svg1"
   inkscape:version="1.4 (86a8ad7, 2024-10-11)"
   sodipodi:docname="car icon.svg"
   xmlns:inkscape="http://www.inkscape.org/namespaces/inkscape"
   xmlns:sodipodi="http://sodipodi.sourceforge.net/DTD/sodipodi-0.dtd"
   xmlns:xlink="http://www.w3.org/1999/xlink"
   xmlns="http://www.w3.org/2000/svg"
   xmlns:svg="http://www.w3.org/2000/svg">
  <sodipodi:namedview
     id="namedview1"
     pagecolor="#505050"
     bordercolor="#eeeeee"
     borderopacity="1"
     inkscape:showpageshadow="0"
     inkscape:pageopacity="0"
     inkscape:pagecheckerboard="0"
     inkscape:deskcolor="#505050"
     inkscape:document-units="mm"
     inkscape:zoom="1.5"
     inkscape:cx="130.33333"
     inkscape:cy="247.66667"
     inkscape:window-width="1920"
     inkscape:window-height="1001"
     inkscape:window-x="-9"
     inkscape:window-y="-9"
     inkscape:window-maximized="1"
     inkscape:current-layer="layer1" />
  <defs
     id="defs1">
    <linearGradient
       id="linearGradient9"
       inkscape:collect="always">
      <stop
         style="stop-color:#ff941c;stop-opacity:1;"
         offset="0"
         id="stop9" />
      <stop
         style="stop-color:#ff6413;stop-opacity:1;"
         offset="1"
         id="stop10" />
    </linearGradient>
    <radialGradient
       inkscape:collect="always"
       xlink:href="#linearGradient9"
       id="radialGradient10"
       cx="89.482979"
       cy="75.302055"
       fx="89.482979"
       fy="75.302055"
       r="48.74147"
       gradientTransform="matrix(-2.0164569,-0.45478619,0.2077959,-0.92133731,283.23772,178.61268)"
       gradientUnits="userSpaceOnUse" />
    <radialGradient
       inkscape:collect="always"
       xlink:href="#linearGradient9"
       id="radialGradient11"
       gradientUnits="userSpaceOnUse"
       gradientTransform="matrix(-2.0164569,-0.45478619,0.2077959,-0.92133731,283.23772,173.22524)"
       cx="89.482979"
       cy="75.302055"
       fx="89.482979"
       fy="75.302055"
       r="48.74147" />
    <radialGradient
       inkscape:collect="always"
       xlink:href="#linearGradient9"
       id="radialGradient12"
       gradientUnits="userSpaceOnUse"
       gradientTransform="matrix(-2.0164569,-0.45478619,0.2077959,-0.92133731,283.23772,173.22524)"
       cx="89.482979"
       cy="75.302055"
       fx="89.482979"
       fy="75.302055"
       r="48.74147" />
    <radialGradient
       inkscape:collect="always"
       xlink:href="#linearGradient9"
       id="radialGradient13"
       gradientUnits="userSpaceOnUse"
       gradientTransform="matrix(-2.0164569,-0.45478619,0.2077959,-0.92133731,283.23772,178.61268)"
       cx="89.482979"
       cy="75.302055"
       fx="89.482979"
       fy="75.302055"
       r="48.74147" />
  </defs>
  <g
     inkscape:label="Camada 1"
     inkscape:groupmode="layer"
     id="layer1"
     transform="translate(-7.659158,-52.255858)">
    <g
       id="g8"
       style="fill:url(#radialGradient10)"
       transform="matrix(1.8537992,0,0,1.9013532,-83.708926,-86.675543)">
      <path
         id="rect1"
         style="fill:url(#radialGradient13);fill-opacity:1;stroke-width:0.153169"
         d="m 89.933529,73.071509 c -2.563568,0.01784 -4.920533,0.171342 -6.897254,0.445967 C 62.519638,76.367847 63.94492,86.968943 61.31047,90.185193 59.690037,92.163488 49.310168,91.255229 49.310168,95.268604 v 0.910232 c 0,4.197374 -0.343317,14.389824 1.609643,14.389824 h 5.240069 l 1.233722,-0.014 c 1.19e-4,-7.60524 4.930781,-13.770386 12.536014,-13.770214 7.596566,3.9e-4 13.052343,6.152474 13.064146,13.749034 h 3.639227 c -0.02003,0.0721 21.121721,0.0416 24.130481,0.0367 0.23067,-7.42602 4.54676,-13.33016 11.97635,-13.342864 7.42304,0.002 12.45027,5.887354 12.70053,13.306174 h 2.65048 c -0.005,0.0116 -0.006,0.0235 -0.0109,0.0351 h 6.31767 c 2.63562,0 2.3955,-5.76586 2.3955,-8.64879 v -4.654341 c 0,-2.401883 -2.39111,-3.64556 -5.30407,-4.032478 l -7.98659,-1.060829 c -2.08274,-0.57082 -4.13206,-1.207606 -6.02444,-2.055689 -4.0171,-1.800291 -1.88866,-8.387198 -13.57333,-13.17594 -6.72927,-2.757856 -16.280443,-3.922544 -23.971147,-3.869014 z m -0.967383,3.326928 v 13.890625 h -23.8125 C 69.507642,76.369368 85.54699,76.532189 88.966146,76.398437 Z m 2.315104,0 c 6.777832,0.18684 12.99371,0.501403 18.52393,2.352312 5.19222,1.737781 9.81941,4.79047 12.56461,11.538313 H 91.28125 Z"
         sodipodi:nodetypes="cssssccccccccccccssscssscccccscccs" />
      <circle
         style="fill:url(#radialGradient12);fill-opacity:1;stroke-width:0.25781"
         id="circle5"
         cx="69.929382"
         cy="109.35762"
         r="9.8957739" />
      <circle
         style="fill:url(#radialGradient11);fill-opacity:1;stroke-width:0.25781"
         id="circle6"
         cx="123.06746"
         cy="109.35762"
         r="9.8957739" />
    </g>
  </g>
</svg>
